<?xml version="1.0" encoding="UTF-8"?>
<svg id="Calque_1" xmlns="http://www.w3.org/2000/svg" version="1.1" viewBox="0 0 2093.79 708.63">
  <!-- Generator: Adobe Illustrator 30.2.1, SVG Export Plug-In . SVG Version: 2.1.1 Build 1)  -->
  <defs>
    <style>
      .st0 {
        fill: #fff;
      }
    </style>
  </defs>
  <path class="st0" d="M525.27,358.1c-.65-20.87-17.36-36.48-49.66-46.39-25.8-7.91-59.59-11.47-95.16-10.03-35.57,1.45-69.06,7.75-94.3,17.74-31.61,12.51-47.31,29.44-46.66,50.31.65,20.87,17.36,36.48,49.66,46.39,22.03,6.76,49.9,10.34,79.73,10.34,5.09,0,10.24-.1,15.43-.31,35.57-1.45,69.06-7.75,94.3-17.74,31.61-12.51,47.31-29.44,46.66-50.31ZM383.22,391.25c-68.61,2.79-107.03-14.39-112.88-22.77,5.32-8.84,42.56-29.1,111.19-31.89,68.64-2.81,107.03,14.39,112.88,22.77-5.32,8.84-42.56,29.1-111.19,31.89Z"/>
  <path class="st0" d="M453.24,426.58c-28.43,6.17-63.09,19.65-97.58,37.97-34.49,18.31-65.07,39.46-86.11,59.56-26.84,25.64-35.78,47.43-26.58,64.77,6.34,11.94,19.26,17.94,38.54,17.94,8.71,0,18.71-1.22,30-3.67,28.43-6.17,63.09-19.66,97.58-37.97,34.49-18.31,65.07-39.46,86.11-59.56,26.84-25.64,35.78-47.43,26.58-64.77-9.21-17.34-32.27-22.14-68.54-14.27ZM465.05,485.89c-18.51,16.3-44.2,33.5-72.33,48.44-28.13,14.94-56.77,26.58-80.64,32.78-19.74,5.13-31.16,5.27-36.51,4.46,2.33-4.88,8.84-14.27,24.15-27.74,18.51-16.3,44.2-33.5,72.33-48.44,28.13-14.94,56.77-26.58,80.65-32.78,19.73-5.13,31.16-5.26,36.51-4.46-2.33,4.88-8.84,14.27-24.15,27.74Z"/>
  <g>
    <path class="st0" d="M772.63,388.33c.16,31.89-17.59,51.58-46.26,51.72l-113.8.56,15.01-41.62,88.64-.44c5.56-.03,8.76-2.97,8.74-7.65-.11-22.82-99.5-6.24-99.82-69.72-.13-25.45,15.85-48.35,42.18-48.48l107.07-.53-15.02,39.86-78.4.39c-5.27.03-9.05,3.26-9.03,8.24.13,25.74,100.36,1.84,100.68,67.67Z"/>
    <path class="st0" d="M822.32,203.18c14.04-.07,25.51,11.29,25.58,25.62.03,7.02-2.86,13.47-7.22,18.17-4.66,4.41-11.08,7.37-18.1,7.4l-7.02.04c-14.33.07-25.8-11.28-25.87-25.33-.07-14.33,11.28-25.8,25.62-25.87l7.02-.04ZM797.5,272.35l43-.21.82,166.17-43,.8-.82-166.76Z"/>
    <path class="st0" d="M1023.01,437.7l-97.13.48c-31.89.16-58.05-25.75-58.21-57.64l-.26-52.37c-.16-31.89,25.75-58.05,57.64-58.21l94.2-.46-15.3,41.62-78.7.39c-8.19.04-14.89,6.8-14.85,14.99l.27,55.29c.04,8.19,6.8,14.89,14.99,14.85l81.92-.4,15.42,41.47Z"/>
    <path class="st0" d="M1212.34,328.23l.23,46.22-134.58.66.03,6.14c.04,8.19,6.8,14.89,14.99,14.85l98.88-.49,15.43,42.93-114.1.56c-31.89.16-58.05-25.75-58.21-57.64l-.26-52.37c-.16-31.89,25.75-58.05,57.64-58.21l61.73-.3c31.89-.16,58.06,25.75,58.21,57.64ZM1169.39,339.56l-.06-12.58c-.04-8.19-6.8-14.89-15-14.84l-61.73.3c-8.19.04-14.89,6.8-14.85,14.99l.06,12.58,91.57-.45Z"/>
    <path class="st0" d="M1419.17,326.33l.54,109.71-42.71.21-.55-111.17c-.04-8.48-6.8-15.18-15.29-15.14l-64.95.32c-8.19.04-14.89,6.8-14.84,15.29l.55,111.17-43.01.21-.54-109.71c-.16-31.89,25.75-58.05,57.64-58.21l64.95-.32c31.89-.16,58.05,25.75,58.21,57.64Z"/>
    <path class="st0" d="M1553.99,435.96l-46.81.23c-31.89.16-58.05-25.46-58.21-57.64l-.64-130.19,42.87-26.83.23,47.39,59.68-.29-15.33,35.48-44.17.22.37,74.02c.04,8.48,6.8,15.18,15,15.14l31.6-.16,15.42,42.64Z"/>
    <path class="st0" d="M1711.72,267.54l-15.3,41.33-64.95.32c-8.19.04-14.89,6.8-14.84,15.29l.55,111.17-43.01.21-.54-109.71c-.16-31.89,25.75-58.05,57.64-58.21l80.45-.4Z"/>
    <path class="st0" d="M1897.19,324.84l.23,46.22-134.58.67.03,6.14c.04,8.19,6.8,14.89,14.99,14.85l98.88-.49,15.43,42.93-114.1.56c-31.89.16-58.05-25.75-58.21-57.64l-.26-52.37c-.16-31.89,25.75-58.05,57.64-58.21l61.73-.31c31.89-.16,58.06,25.75,58.21,57.64ZM1854.24,336.17l-.06-12.58c-.04-8.19-6.8-14.89-15-14.85l-61.73.31c-8.19.04-14.89,6.8-14.85,14.99l.06,12.58,91.57-.45Z"/>
  </g>
  <path class="st0" d="M281.52,304.92c8.71,0,18.71-1.22,30-3.67,28.43-6.17,63.09-19.66,97.58-37.97,34.49-18.31,65.07-39.46,86.11-59.56,26.84-25.64,35.78-47.43,26.58-64.77-9.21-17.34-32.27-22.14-68.54-14.27-28.43,6.17-63.09,19.65-97.58,37.97-34.49,18.31-65.07,39.46-86.11,59.56-26.84,25.64-35.78,47.43-26.58,64.77,6.34,11.94,19.26,17.94,38.54,17.94ZM299.71,241.93c18.51-16.3,44.2-33.5,72.33-48.44,28.13-14.94,56.77-26.58,80.65-32.78,19.73-5.13,31.16-5.26,36.51-4.46-2.33,4.88-8.84,14.27-24.15,27.74-18.51,16.3-44.2,33.5-72.33,48.44-28.13,14.94-56.77,26.58-80.64,32.78-19.74,5.13-31.16,5.27-36.51,4.46,2.33-4.88,8.84-14.27,24.15-27.74Z"/>
</svg>