<?xml version="1.0" encoding="UTF-8"?>
<svg id="Calque_1" xmlns="http://www.w3.org/2000/svg" xmlns:xlink="http://www.w3.org/1999/xlink" version="1.1" viewBox="0 0 2093.79 708.63">
  <!-- Generator: Adobe Illustrator 30.2.1, SVG Export Plug-In . SVG Version: 2.1.1 Build 1)  -->
  <defs>
    <style>
      .st0 {
        fill: url(#Dégradé_sans_nom_619);
      }

      .st1 {
        fill: url(#Dégradé_sans_nom_6192);
      }

      .st2 {
        fill: url(#Dégradé_sans_nom_6191);
      }
    </style>
    <linearGradient id="Dégradé_sans_nom_619" data-name="Dégradé sans nom 619" x1="317.83" y1="467.18" x2="450.15" y2="255.47" gradientUnits="userSpaceOnUse">
      <stop offset="0" stop-color="#8d1fff"/>
      <stop offset=".05" stop-color="#9528ff"/>
      <stop offset=".13" stop-color="#aa41ff"/>
      <stop offset=".24" stop-color="#cd69ff"/>
      <stop offset=".29" stop-color="#e17fff"/>
      <stop offset=".31" stop-color="#e486e1"/>
      <stop offset=".36" stop-color="#e991b3"/>
      <stop offset=".41" stop-color="#ee9b8b"/>
      <stop offset=".47" stop-color="#f2a36b"/>
      <stop offset=".52" stop-color="#f5aa52"/>
      <stop offset=".57" stop-color="#f7ae40"/>
      <stop offset=".63" stop-color="#f8b136"/>
      <stop offset=".7" stop-color="#f9b233"/>
      <stop offset=".71" stop-color="#f7ad2f"/>
      <stop offset=".84" stop-color="#ef8915"/>
      <stop offset=".94" stop-color="#ea7305"/>
      <stop offset="1" stop-color="#e96b00"/>
    </linearGradient>
    <linearGradient id="Dégradé_sans_nom_6191" data-name="Dégradé sans nom 619" x1="385.67" y1="509.58" x2="517.99" y2="297.87" xlink:href="#Dégradé_sans_nom_619"/>
    <linearGradient id="Dégradé_sans_nom_6192" data-name="Dégradé sans nom 619" x1="249.99" y1="424.78" x2="382.31" y2="213.07" xlink:href="#Dégradé_sans_nom_619"/>
  </defs>
  <g>
    <path class="st0" d="M525.27,358.1c-.65-20.87-17.36-36.48-49.66-46.39-25.8-7.91-59.59-11.47-95.16-10.03-35.57,1.45-69.06,7.75-94.3,17.74-31.61,12.51-47.31,29.44-46.66,50.31.65,20.87,17.36,36.48,49.66,46.39,22.03,6.76,49.9,10.34,79.73,10.34,5.09,0,10.24-.1,15.43-.31,35.57-1.45,69.06-7.75,94.3-17.74,31.61-12.51,47.31-29.44,46.66-50.31ZM383.22,391.25c-68.61,2.79-107.03-14.39-112.88-22.77,5.32-8.84,42.56-29.1,111.19-31.89,68.64-2.81,107.03,14.39,112.88,22.77-5.32,8.84-42.56,29.1-111.19,31.89Z"/>
    <path class="st2" d="M453.24,426.58c-28.43,6.17-63.09,19.65-97.58,37.97-34.49,18.31-65.07,39.46-86.11,59.56-26.84,25.64-35.78,47.43-26.58,64.77,6.34,11.94,19.26,17.94,38.54,17.94,8.71,0,18.71-1.22,30-3.67,28.43-6.17,63.09-19.66,97.58-37.97,34.49-18.31,65.07-39.46,86.11-59.56,26.84-25.64,35.78-47.43,26.58-64.77-9.21-17.34-32.27-22.14-68.54-14.27ZM465.05,485.89c-18.51,16.3-44.2,33.5-72.33,48.44-28.13,14.94-56.77,26.58-80.64,32.78-19.74,5.13-31.16,5.27-36.51,4.46,2.33-4.88,8.84-14.27,24.15-27.74,18.51-16.3,44.2-33.5,72.33-48.44,28.13-14.94,56.77-26.58,80.65-32.78,19.73-5.13,31.16-5.26,36.51-4.46-2.33,4.88-8.84,14.27-24.15,27.74Z"/>
    <path class="st1" d="M281.52,304.92c8.71,0,18.71-1.22,30-3.67,28.43-6.17,63.09-19.66,97.58-37.97,34.49-18.31,65.07-39.46,86.11-59.56,26.84-25.64,35.78-47.43,26.58-64.77-9.21-17.34-32.27-22.14-68.54-14.27-28.43,6.17-63.09,19.65-97.58,37.97-34.49,18.31-65.07,39.46-86.11,59.56-26.84,25.64-35.78,47.43-26.58,64.77,6.34,11.94,19.26,17.94,38.54,17.94ZM299.71,241.93c18.51-16.3,44.2-33.5,72.33-48.44,28.13-14.94,56.77-26.58,80.65-32.78,19.73-5.13,31.16-5.26,36.51-4.46-2.33,4.88-8.84,14.27-24.15,27.74-18.51,16.3-44.2,33.5-72.33,48.44-28.13,14.94-56.77,26.58-80.64,32.78-19.74,5.13-31.16,5.27-36.51,4.46,2.33-4.88,8.84-14.27,24.15-27.74Z"/>
  </g>
  <g>
    <path d="M772.48,387.68c0,31.89-17.85,51.49-46.52,51.49h-113.8l15.21-41.54h88.64c5.56,0,8.78-2.93,8.78-7.61,0-22.82-99.47-6.73-99.47-70.21,0-25.45,16.09-48.27,42.42-48.27h107.08l-15.21,39.79h-78.41c-5.27,0-9.07,3.22-9.07,8.19,0,25.75,100.35,2.34,100.35,68.17Z"/>
    <path d="M973.17,329.76v52.37c0,31.89-26.04,57.93-57.93,57.93h-64.66c-31.89,0-57.93-20.19-57.93-52.08v-5.85c0-22.23,18.14-46.22,40.37-46.22h97.42v-7.61c0-8.19-6.73-14.92-15.21-14.92h-106.2l15.51-41.54h90.69c31.89,0,57.93,26.04,57.93,57.93ZM930.46,371.01h-81.04c-7.31,0-13.75,6.14-13.75,12v1.46c0,8.48,6.73,12.58,14.92,12.58h64.66c8.48,0,15.21-6.73,15.21-14.92v-11.12Z"/>
    <path d="M1181.47,328.88v109.71h-42.71v-111.17c0-8.48-6.73-15.21-15.21-15.21h-64.95c-8.19,0-14.92,6.73-14.92,15.21v111.17h-43.01v-109.71c0-31.89,26.04-57.93,57.93-57.93h64.95c31.89,0,57.93,26.04,57.93,57.93Z"/>
    <path d="M1315.75,439.17h-46.81c-31.89,0-57.93-25.75-57.93-57.93v-130.19l43.01-26.62v47.39h59.68l-15.51,35.4h-44.18v74.02c0,8.48,6.73,15.21,14.92,15.21h31.6l15.21,42.71Z"/>
    <path d="M1362.84,202.79c14.04,0,25.45,11.41,25.45,25.75,0,7.02-2.92,13.46-7.31,18.14-4.68,4.39-11.12,7.31-18.14,7.31h-7.02c-14.33,0-25.75-11.41-25.75-25.45s11.41-25.75,25.75-25.75h7.02ZM1337.68,271.83h43.01v166.17l-43.01.58v-166.76Z"/>
    <path d="M1547.44,271.54l-15.5,41.25h-64.95c-8.19,0-14.92,6.73-14.92,15.21v111.17h-43.01v-109.71c0-31.89,26.04-57.93,57.93-57.93h80.45Z"/>
    <path d="M1590.74,202.79c14.04,0,25.45,11.41,25.45,25.75,0,7.02-2.92,13.46-7.31,18.14-4.68,4.39-11.12,7.31-18.14,7.31h-7.02c-14.33,0-25.75-11.41-25.75-25.45s11.41-25.75,25.75-25.75h7.02ZM1565.58,271.83h43.01v166.17l-43.01.58v-166.76Z"/>
    <path d="M1812.49,329.76v52.37c0,31.89-26.04,57.93-57.93,57.93h-64.66c-31.89,0-57.93-20.19-57.93-52.08v-5.85c0-22.23,18.14-46.22,40.37-46.22h97.42v-7.61c0-8.19-6.73-14.92-15.21-14.92h-106.2l15.51-41.54h90.69c31.89,0,57.93,26.04,57.93,57.93ZM1769.78,371.01h-81.04c-7.31,0-13.75,6.14-13.75,12v1.46c0,8.48,6.73,12.58,14.92,12.58h64.66c8.48,0,15.21-6.73,15.21-14.92v-11.12Z"/>
  </g>
</svg>